<svg xmlns="http://www.w3.org/2000/svg" width="72" height="72">
    <path d="M0 0h72v72H0V0Z" fill="#75D670"/>
    <path d="M11 9h14l1 23 4-5.313 1.353-1.761c2.034-2.665 3.856-5.28 5.569-8.172C38.769 13.718 40.316 11.337 43 9c4.48-.903 8.5-.68 13 0 0 4.863-1.771 6.785-4.688 10.375l-1.318 1.672c-3.552 4.484-3.552 4.484-5.477 6.528-2.811 3.004-2.811 3.004-3.599 6.913 1.41 3.271 3.241 5.863 5.395 8.7l2.363 3.167c3.25 3.7 4.905 4.475 9.777 5.06l3.797.21 3.828.227L69 52c-.71 1.922-.71 1.922-2 4-2.164.828-2.164.828-4.625 1.25l-2.477.453L58 58v2l12 3-1 2c-18.87 1.1-18.87 1.1-25.047-4.02C38.621 55.574 33.718 49.948 29 44c-3.553 3.62-3.539 7.438-3.688 12.25l-.103 2.258c-.082 1.83-.147 3.661-.209 5.492H11V9Z" fill="#FAFDFA"/>
</svg>
