<svg width="274" height="54" viewBox="0 0 274 54" fill="none" xmlns="http://www.w3.org/2000/svg">
<path d="M52.4063 0.0554199H2.34959C1.42807 0.0554199 0.68103 0.802458 0.68103 1.72398V51.7807C0.68103 52.7022 1.42807 53.4493 2.34959 53.4493H52.4063C53.3278 53.4493 54.0748 52.7022 54.0748 51.7807V1.72398C54.0748 0.802458 53.3278 0.0554199 52.4063 0.0554199Z" fill="#0D7EE8"/>
<path d="M14.9248 26.0076C15.3892 26.3434 16.0485 26.2331 16.3523 25.7813C16.6881 25.317 16.5778 24.6576 16.126 24.3538L11.6542 21.1502C11.4953 21.0276 11.5091 20.8742 11.516 20.7975C11.523 20.7208 11.5815 20.587 11.7739 20.5117L41.5283 12.9257C41.7011 12.895 41.8029 12.9661 41.8727 13.0497C41.9423 13.1333 42.0121 13.2169 41.9341 13.3954L30.6605 41.9204C30.5825 42.0989 30.4417 42.117 30.3776 42.1421C30.3009 42.1352 30.1475 42.1213 30.0527 41.9736L26.6451 35.7277C26.5376 35.5479 26.4498 35.3235 26.3423 35.1437C25.0086 32.1162 24.672 29.8822 27.1751 27.6816L33.6196 21.7178C34.0571 21.3245 34.1002 20.679 33.7194 20.2735C33.3262 19.8359 32.6807 19.7929 32.2751 20.1736L25.5065 26.0076C22.0961 29.0073 22.664 32.7386 24.8219 36.7376L28.2295 42.9834C28.6648 43.8113 29.5501 44.2781 30.4967 44.2402C30.7462 44.2165 31.0153 44.1481 31.2397 44.0601C31.8488 43.8216 32.3255 43.3391 32.5985 42.7144L43.8721 14.1894C44.2106 13.3543 44.0514 12.3812 43.4489 11.6928C42.8464 11.0043 41.9277 10.7355 41.0439 10.9337L11.2575 18.5322C10.3542 18.7751 9.67124 19.4863 9.47919 20.412C9.28705 21.3377 9.68325 22.2549 10.453 22.804L14.9248 26.0076Z" fill="white"/>
<path d="M13.5151 34.5948C13.5989 34.562 13.6996 34.4903 13.7724 34.4297L18.2763 30.4766C18.6573 30.1342 18.6947 29.5723 18.3633 29.2192C18.0209 28.8382 17.459 28.8008 17.1059 29.1322L12.602 33.0852C12.2211 33.4276 12.1836 33.9896 12.515 34.3426C12.7688 34.6618 13.1523 34.7368 13.5151 34.5948Z" fill="white"/>
<path d="M12.9423 40.9177C13.0261 40.8852 13.1271 40.8138 13.2 40.7533L20.8544 34.0501C21.2364 33.7088 21.2754 33.147 20.9449 32.7929C20.6036 32.411 20.0418 32.3719 19.6879 32.7024L12.0334 39.4057C11.6515 39.747 11.6125 40.3088 11.9429 40.6627C12.1849 40.9547 12.607 41.0479 12.9423 40.9177Z" fill="white"/>
<path fill-rule="evenodd" clip-rule="evenodd" d="M69.5338 34.4688L67.2548 37.814C70.2147 40.9483 74.1515 42.5156 79.065 42.5156C82.6958 42.5156 85.5077 41.6715 87.5009 39.9839C89.5136 38.2761 90.5199 36.1163 90.5199 33.5044C90.5199 31.9373 90.1846 30.5811 89.5136 29.4359C88.8429 28.2907 87.9743 27.4167 86.9089 26.814C85.8632 26.1911 84.6891 25.6687 83.3867 25.2468C82.1038 24.8249 80.8113 24.4733 79.509 24.192C78.2265 23.8906 77.0523 23.5792 75.9864 23.2578C74.9408 22.9162 74.0825 22.4541 73.4115 21.8714C72.7405 21.2687 72.4051 20.5354 72.4051 19.6714C72.4051 18.3253 72.9972 17.2102 74.1809 16.3262C75.365 15.4221 76.9336 14.97 78.8876 14.97C80.7423 14.97 82.4296 15.3217 83.949 16.0249C85.4882 16.708 86.7116 17.6121 87.6192 18.7372L89.7207 15.5427C86.9581 12.6495 83.347 11.2029 78.8876 11.2029C75.513 11.2029 72.8587 12.0266 70.925 13.6741C68.9913 15.3016 68.0243 17.3408 68.0243 19.792C68.0243 21.2788 68.3596 22.5646 69.0306 23.6496C69.7016 24.7144 70.5699 25.5381 71.6353 26.1208C72.7012 26.7035 73.8753 27.1957 75.1579 27.5975C76.4602 27.9993 77.7527 28.351 79.0356 28.6523C80.3181 28.9537 81.4923 29.2852 82.5577 29.6468C83.6232 30.0085 84.4915 30.5208 85.1625 31.1838C85.8335 31.8468 86.1688 32.6605 86.1688 33.625C86.1688 35.1519 85.5474 36.3875 84.3041 37.3318C83.0808 38.2761 81.3736 38.7481 79.1832 38.7481C77.2693 38.7481 75.444 38.3364 73.7075 37.5126C71.971 36.6889 70.5798 35.6743 69.5338 34.4688ZM95.4951 11.9563V32.9921C95.4951 39.3408 98.603 42.5156 104.819 42.5156C106.872 42.5156 108.815 42.0432 110.65 41.0989C112.485 40.1546 114.015 38.9792 115.238 37.5729V41.7621H119.797V11.9563H115.238V33.866C114.35 35.1318 113.117 36.1966 111.538 37.0606C109.96 37.9245 108.322 38.3565 106.625 38.3565C104.474 38.3565 102.836 37.8542 101.711 36.8496C100.586 35.825 100.024 34.0669 100.024 31.5756V11.9563H95.4951ZM126.459 41.7621V11.9563H130.988V16.718C132.251 15.0705 133.721 13.7545 135.398 12.77C137.075 11.7655 138.861 11.2632 140.756 11.2632V16.0249C140.045 15.9445 139.463 15.9043 139.009 15.9043C137.608 15.9043 136.089 16.3965 134.451 17.381C132.813 18.3454 131.659 19.4404 130.988 20.666V41.7621H126.459ZM144.162 18.9783C142.939 21.3491 142.327 23.961 142.327 26.814C142.327 31.4551 143.728 35.2323 146.53 38.1455C149.332 41.0587 152.923 42.5156 157.304 42.5156C161.961 42.5156 165.839 40.9685 168.937 37.8743L166.776 34.8606C165.592 36.0861 164.201 37.0304 162.603 37.6934C161.024 38.3565 159.376 38.688 157.659 38.688C154.621 38.688 152.154 37.7035 150.259 35.7345C148.385 33.7656 147.359 31.3144 147.181 28.3811H170.831V27.2057C170.831 24.192 170.279 21.4897 169.174 19.0988C168.089 16.6879 166.47 14.7691 164.32 13.3426C162.168 11.9161 159.653 11.2029 156.771 11.2029C154.028 11.2029 151.552 11.9061 149.342 13.3125C147.132 14.6988 145.405 16.5874 144.162 18.9783ZM166.332 24.9153H147.122C147.181 23.75 147.428 22.6048 147.862 21.4797C148.296 20.3345 148.888 19.2797 149.638 18.3153C150.407 17.3308 151.404 16.5372 152.628 15.9344C153.851 15.3317 155.213 15.0303 156.712 15.0303C158.311 15.0303 159.741 15.3418 161.004 15.9646C162.267 16.5673 163.274 17.3609 164.024 18.3454C164.773 19.3299 165.336 20.3847 165.71 21.5098C166.105 22.6349 166.312 23.7701 166.332 24.9153Z" fill="#334155"/>
<path d="M201.046 41.7519V19.9408L192.504 41.7519H189.686L181.144 19.9408V41.7519H174.691V11.4436H183.734L191.095 30.3465L198.456 11.4436H207.544V41.7519H201.046Z" fill="#334155"/>
<path d="M234.784 41.7519L232.875 36.5263H219.334L217.426 41.7519H210.337L222.061 11.4436H230.149L241.827 41.7519H234.784ZM226.105 17.0327L221.061 30.9372H231.103L226.105 17.0327Z" fill="#334155"/>
<path d="M244.626 41.7519V11.4436H251.078V41.7519H244.626Z" fill="#334155"/>
<path d="M253.937 41.7519V11.4436H260.39V36.0719H273.204V41.7519H253.937Z" fill="#334155"/>
</svg>
